<svg width="59" height="49" viewBox="0 0 59 49" fill="none" xmlns="http://www.w3.org/2000/svg">
<path d="M58.8869 6.23207C56.7113 7.18836 54.3882 7.83982 51.9421 8.13728C54.4349 6.63524 56.3524 4.26786 57.2595 1.44324C54.9216 2.80761 52.3305 3.80078 49.5723 4.3539C47.3696 1.99636 44.2303 0.521362 40.7444 0.521362C34.0651 0.521362 28.6494 5.93707 28.6494 12.609C28.6494 13.5677 28.76 14.4896 28.9616 15.3722C18.907 14.8977 9.99558 10.0695 4.03167 2.77074C2.98196 4.54565 2.39442 6.6082 2.39442 8.85511C2.39442 13.0589 4.53317 16.7537 7.77325 18.9244C5.78937 18.8605 3.9235 18.3148 2.29608 17.4101V17.5601C2.29608 23.4232 6.45804 28.3128 11.9967 29.4264C10.9814 29.6993 9.90954 29.8468 8.81067 29.8468C8.03875 29.8468 7.29879 29.7731 6.55883 29.6354C8.11004 34.4365 12.5695 37.9372 17.877 38.0355C13.747 41.2781 8.51321 43.2103 2.87625 43.2103C1.9175 43.2103 0.961208 43.1538 0 43.0456C5.38129 46.4725 11.7213 48.4761 18.5776 48.4761C40.8354 48.4761 52.9918 30.0484 52.9918 14.0938C52.9918 13.58 52.9918 13.0613 52.955 12.5451C55.3174 10.8513 57.38 8.71007 59.0025 6.28124L58.8869 6.23207Z" fill="#E14400"/>
</svg>
