<svg width="59" height="43" viewBox="0 0 59 43" fill="none" xmlns="http://www.w3.org/2000/svg">
<path d="M57.7585 7.25394C57.4167 6.02911 56.7647 4.91317 55.8655 4.01398C54.9663 3.1148 53.8503 2.46278 52.6255 2.12094C48.0284 0.889318 29.527 0.889317 29.527 0.889317C29.527 0.889317 11.0723 0.864734 6.4285 2.12094C5.20367 2.46278 4.08772 3.1148 3.18854 4.01398C2.28935 4.91317 1.63733 6.02911 1.2955 7.25394C0.424071 11.9604 -0.00554726 16.7381 0.0122497 21.5246C-0.00218282 26.293 0.427422 31.0524 1.2955 35.7411C1.63733 36.9659 2.28935 38.0819 3.18854 38.9811C4.08772 39.8803 5.20367 40.5323 6.4285 40.8741C11.0207 42.1082 29.527 42.1082 29.527 42.1082C29.527 42.1082 47.9793 42.1082 52.6255 40.8741C53.8503 40.5323 54.9663 39.8803 55.8655 38.9811C56.7647 38.0819 57.4167 36.9659 57.7585 35.7411C58.6084 31.0507 59.0199 26.2913 58.9877 21.5246C59.0233 16.7398 58.6118 11.9622 57.7585 7.25394ZM23.6221 30.3524V12.6697L39.0211 21.5246L23.6221 30.3524Z" fill="#E14400"/>
</svg>
